<mxfile host="app.diagrams.net" modified="2023-05-30T22:33:16.138Z" agent="Mozilla/5.0 (Windows NT 10.0; Win64; x64) AppleWebKit/537.36 (KHTML, like Gecko) Chrome/113.0.0.0 Safari/537.36" etag="lHC2mbqJ9ypz-U5y7wM4" version="21.3.6" type="device">
  <diagram name="Page-1" id="tUm5_KNQMfu-EzpkYZKZ">
    <mxGraphModel dx="1050" dy="541" grid="1" gridSize="10" guides="1" tooltips="1" connect="1" arrows="1" fold="1" page="1" pageScale="1" pageWidth="1169" pageHeight="827" math="0" shadow="0">
      <root>
        <mxCell id="0" />
        <mxCell id="1" parent="0" />
        <mxCell id="PsXzmbZN0hnTAKAXfbtE-14" value="Alt2" style="shape=umlFrame;whiteSpace=wrap;html=1;fontSize=12;width=40;height=20;" parent="1" vertex="1">
          <mxGeometry x="220" y="500" width="570" height="200" as="geometry" />
        </mxCell>
        <mxCell id="PsXzmbZN0hnTAKAXfbtE-7" value="Alt1" style="shape=umlFrame;whiteSpace=wrap;html=1;width=40;height=20;" parent="1" vertex="1">
          <mxGeometry x="90" y="250" width="610" height="180" as="geometry" />
        </mxCell>
        <mxCell id="tmLtH-D-rDOSetYklQbw-5" value="" style="shape=umlLifeline;participant=umlEntity;perimeter=lifelinePerimeter;whiteSpace=wrap;html=1;container=1;collapsible=0;recursiveResize=0;verticalAlign=top;spacingTop=36;outlineConnect=0;" parent="1" vertex="1">
          <mxGeometry x="440" y="40" width="40" height="720" as="geometry" />
        </mxCell>
        <mxCell id="PsXzmbZN0hnTAKAXfbtE-24" value="" style="html=1;points=[];perimeter=orthogonalPerimeter;fontSize=12;" parent="tmLtH-D-rDOSetYklQbw-5" vertex="1">
          <mxGeometry x="15" y="200" width="10" height="150" as="geometry" />
        </mxCell>
        <mxCell id="tmLtH-D-rDOSetYklQbw-1" value="" style="shape=umlLifeline;participant=umlActor;perimeter=lifelinePerimeter;whiteSpace=wrap;html=1;container=1;collapsible=0;recursiveResize=0;verticalAlign=top;spacingTop=36;outlineConnect=0;" parent="1" vertex="1">
          <mxGeometry x="30" y="40" width="20" height="720" as="geometry" />
        </mxCell>
        <mxCell id="PsXzmbZN0hnTAKAXfbtE-21" value="" style="html=1;points=[];perimeter=orthogonalPerimeter;fontSize=12;" parent="tmLtH-D-rDOSetYklQbw-1" vertex="1">
          <mxGeometry x="5" y="80" width="10" height="600" as="geometry" />
        </mxCell>
        <mxCell id="tmLtH-D-rDOSetYklQbw-2" value="" style="shape=umlLifeline;participant=umlBoundary;perimeter=lifelinePerimeter;whiteSpace=wrap;html=1;container=1;collapsible=0;recursiveResize=0;verticalAlign=top;spacingTop=36;outlineConnect=0;" parent="1" vertex="1">
          <mxGeometry x="160" y="40" width="50" height="720" as="geometry" />
        </mxCell>
        <mxCell id="PsXzmbZN0hnTAKAXfbtE-22" value="" style="html=1;points=[];perimeter=orthogonalPerimeter;fontSize=12;" parent="tmLtH-D-rDOSetYklQbw-2" vertex="1">
          <mxGeometry x="20" y="80" width="10" height="300" as="geometry" />
        </mxCell>
        <mxCell id="-zA8KwV9yIr_Tob36a1G-2" value="showNutrSelectPage()" style="endArrow=classic;html=1;rounded=0;entryX=0.92;entryY=0.284;entryDx=0;entryDy=0;entryPerimeter=0;exitX=0.04;exitY=0.232;exitDx=0;exitDy=0;exitPerimeter=0;fontSize=10;" parent="tmLtH-D-rDOSetYklQbw-2" edge="1">
          <mxGeometry x="0.0945" y="50" width="50" height="50" relative="1" as="geometry">
            <mxPoint x="20.40000000000009" y="136.32000000000005" as="sourcePoint" />
            <mxPoint x="29.200000000000045" y="146.84000000000003" as="targetPoint" />
            <Array as="points">
              <mxPoint x="50" y="136" />
              <mxPoint x="50" y="147" />
            </Array>
            <mxPoint as="offset" />
          </mxGeometry>
        </mxCell>
        <mxCell id="tmLtH-D-rDOSetYklQbw-3" value="" style="shape=umlLifeline;participant=umlEntity;perimeter=lifelinePerimeter;whiteSpace=wrap;html=1;container=1;collapsible=0;recursiveResize=0;verticalAlign=top;spacingTop=36;outlineConnect=0;" parent="1" vertex="1">
          <mxGeometry x="300" y="40" width="40" height="720" as="geometry" />
        </mxCell>
        <mxCell id="PsXzmbZN0hnTAKAXfbtE-23" value="" style="html=1;points=[];perimeter=orthogonalPerimeter;fontSize=12;" parent="tmLtH-D-rDOSetYklQbw-3" vertex="1">
          <mxGeometry x="15" y="80" width="10" height="440" as="geometry" />
        </mxCell>
        <mxCell id="tmLtH-D-rDOSetYklQbw-4" value="" style="shape=umlLifeline;participant=umlBoundary;perimeter=lifelinePerimeter;whiteSpace=wrap;html=1;container=1;collapsible=0;recursiveResize=0;verticalAlign=top;spacingTop=36;outlineConnect=0;" parent="1" vertex="1">
          <mxGeometry x="650" y="40" width="50" height="720" as="geometry" />
        </mxCell>
        <mxCell id="PsXzmbZN0hnTAKAXfbtE-25" value="" style="html=1;points=[];perimeter=orthogonalPerimeter;fontSize=12;" parent="tmLtH-D-rDOSetYklQbw-4" vertex="1">
          <mxGeometry x="20" y="260" width="10" height="380" as="geometry" />
        </mxCell>
        <mxCell id="PsXzmbZN0hnTAKAXfbtE-1" value="getNutrData()" style="endArrow=classic;html=1;rounded=0;" parent="1" source="tmLtH-D-rDOSetYklQbw-2" target="tmLtH-D-rDOSetYklQbw-3" edge="1">
          <mxGeometry x="-0.0296" y="10" width="50" height="50" relative="1" as="geometry">
            <mxPoint x="210" y="130" as="sourcePoint" />
            <mxPoint x="260" y="80" as="targetPoint" />
            <Array as="points">
              <mxPoint x="270" y="120" />
            </Array>
            <mxPoint as="offset" />
          </mxGeometry>
        </mxCell>
        <mxCell id="PsXzmbZN0hnTAKAXfbtE-2" value="NutritionistData" style="endArrow=classic;html=1;rounded=0;dashed=1;dashPattern=8 8;" parent="1" source="tmLtH-D-rDOSetYklQbw-3" target="tmLtH-D-rDOSetYklQbw-2" edge="1">
          <mxGeometry x="0.0222" y="-10" width="50" height="50" relative="1" as="geometry">
            <mxPoint x="240" y="230" as="sourcePoint" />
            <mxPoint x="290" y="180" as="targetPoint" />
            <Array as="points">
              <mxPoint x="290" y="160" />
            </Array>
            <mxPoint as="offset" />
          </mxGeometry>
        </mxCell>
        <mxCell id="PsXzmbZN0hnTAKAXfbtE-3" value="selectNutr()" style="endArrow=classic;html=1;rounded=0;" parent="1" source="tmLtH-D-rDOSetYklQbw-1" target="tmLtH-D-rDOSetYklQbw-2" edge="1">
          <mxGeometry x="-0.0276" y="10" width="50" height="50" relative="1" as="geometry">
            <mxPoint x="110" y="250" as="sourcePoint" />
            <mxPoint x="160" y="200" as="targetPoint" />
            <Array as="points">
              <mxPoint x="100" y="200" />
            </Array>
            <mxPoint x="1" as="offset" />
          </mxGeometry>
        </mxCell>
        <mxCell id="PsXzmbZN0hnTAKAXfbtE-4" value="checkAppointments()" style="endArrow=classic;html=1;rounded=0;" parent="1" source="tmLtH-D-rDOSetYklQbw-2" target="tmLtH-D-rDOSetYklQbw-5" edge="1">
          <mxGeometry x="-0.5236" y="10" width="50" height="50" relative="1" as="geometry">
            <mxPoint x="230" y="260" as="sourcePoint" />
            <mxPoint x="280" y="210" as="targetPoint" />
            <Array as="points">
              <mxPoint x="280" y="240" />
            </Array>
            <mxPoint as="offset" />
          </mxGeometry>
        </mxCell>
        <mxCell id="PsXzmbZN0hnTAKAXfbtE-5" value="showReviewPage()" style="endArrow=classic;html=1;rounded=0;" parent="1" source="tmLtH-D-rDOSetYklQbw-5" target="tmLtH-D-rDOSetYklQbw-4" edge="1">
          <mxGeometry x="0.0733" y="10" width="50" height="50" relative="1" as="geometry">
            <mxPoint x="520" y="300" as="sourcePoint" />
            <mxPoint x="570" y="250" as="targetPoint" />
            <Array as="points">
              <mxPoint x="540" y="300" />
            </Array>
            <mxPoint x="1" as="offset" />
          </mxGeometry>
        </mxCell>
        <mxCell id="PsXzmbZN0hnTAKAXfbtE-6" value="showError()" style="endArrow=classic;html=1;rounded=0;" parent="1" source="tmLtH-D-rDOSetYklQbw-5" edge="1">
          <mxGeometry x="0.0805" y="30" width="50" height="50" relative="1" as="geometry">
            <mxPoint x="370" y="410" as="sourcePoint" />
            <mxPoint x="470" y="380" as="targetPoint" />
            <Array as="points">
              <mxPoint x="520" y="360" />
              <mxPoint x="520" y="380" />
            </Array>
            <mxPoint as="offset" />
          </mxGeometry>
        </mxCell>
        <mxCell id="PsXzmbZN0hnTAKAXfbtE-8" value="" style="endArrow=none;dashed=1;html=1;rounded=0;exitX=0.002;exitY=0.5;exitDx=0;exitDy=0;exitPerimeter=0;entryX=0.998;entryY=0.5;entryDx=0;entryDy=0;entryPerimeter=0;strokeWidth=2;" parent="1" source="PsXzmbZN0hnTAKAXfbtE-7" target="PsXzmbZN0hnTAKAXfbtE-7" edge="1">
          <mxGeometry width="50" height="50" relative="1" as="geometry">
            <mxPoint x="220" y="340" as="sourcePoint" />
            <mxPoint x="270" y="290" as="targetPoint" />
          </mxGeometry>
        </mxCell>
        <mxCell id="PsXzmbZN0hnTAKAXfbtE-9" value="&lt;font style=&quot;font-size: 10px;&quot;&gt;User had an appointment&amp;nbsp;&lt;br&gt;with this nutritionist&lt;br&gt;&lt;/font&gt;" style="text;html=1;strokeColor=none;fillColor=none;align=center;verticalAlign=middle;whiteSpace=wrap;rounded=0;" parent="1" vertex="1">
          <mxGeometry x="110" y="290" width="60" height="30" as="geometry" />
        </mxCell>
        <mxCell id="PsXzmbZN0hnTAKAXfbtE-10" value="&lt;font style=&quot;font-size: 10px;&quot;&gt;User didnt have an appointment&amp;nbsp;&lt;br&gt;with this nutritionist&lt;br&gt;&lt;/font&gt;" style="text;html=1;strokeColor=none;fillColor=none;align=center;verticalAlign=middle;whiteSpace=wrap;rounded=0;" parent="1" vertex="1">
          <mxGeometry x="110" y="370" width="60" height="30" as="geometry" />
        </mxCell>
        <mxCell id="PsXzmbZN0hnTAKAXfbtE-11" value="fillReviewForm()" style="endArrow=classic;html=1;rounded=0;strokeWidth=1;fontSize=12;" parent="1" edge="1">
          <mxGeometry x="-0.7526" y="10" width="50" height="50" relative="1" as="geometry">
            <mxPoint x="39.5" y="449" as="sourcePoint" />
            <mxPoint x="674.5" y="449" as="targetPoint" />
            <Array as="points">
              <mxPoint x="260" y="449" />
            </Array>
            <mxPoint as="offset" />
          </mxGeometry>
        </mxCell>
        <mxCell id="PsXzmbZN0hnTAKAXfbtE-12" value="updateNutrRating()" style="endArrow=classic;html=1;rounded=0;strokeWidth=1;fontSize=12;" parent="1" source="PsXzmbZN0hnTAKAXfbtE-25" edge="1">
          <mxGeometry x="-0.03" y="-9" width="50" height="50" relative="1" as="geometry">
            <mxPoint x="609.5" y="559" as="sourcePoint" />
            <mxPoint x="319.5" y="559" as="targetPoint" />
            <mxPoint as="offset" />
          </mxGeometry>
        </mxCell>
        <mxCell id="PsXzmbZN0hnTAKAXfbtE-16" value="" style="endArrow=none;dashed=1;html=1;rounded=0;strokeWidth=2;fontSize=12;exitX=0;exitY=0.45;exitDx=0;exitDy=0;exitPerimeter=0;entryX=1.002;entryY=0.45;entryDx=0;entryDy=0;entryPerimeter=0;" parent="1" source="PsXzmbZN0hnTAKAXfbtE-14" target="PsXzmbZN0hnTAKAXfbtE-14" edge="1">
          <mxGeometry width="50" height="50" relative="1" as="geometry">
            <mxPoint x="380" y="630" as="sourcePoint" />
            <mxPoint x="430" y="580" as="targetPoint" />
          </mxGeometry>
        </mxCell>
        <mxCell id="PsXzmbZN0hnTAKAXfbtE-18" value="Review&amp;nbsp;&lt;br&gt;Valid" style="text;html=1;strokeColor=none;fillColor=none;align=center;verticalAlign=middle;whiteSpace=wrap;rounded=0;fontSize=12;" parent="1" vertex="1">
          <mxGeometry x="240" y="540" width="60" height="30" as="geometry" />
        </mxCell>
        <mxCell id="PsXzmbZN0hnTAKAXfbtE-20" value="Review&lt;br&gt;invalid" style="text;html=1;strokeColor=none;fillColor=none;align=center;verticalAlign=middle;whiteSpace=wrap;rounded=0;fontSize=12;" parent="1" vertex="1">
          <mxGeometry x="240" y="630" width="60" height="30" as="geometry" />
        </mxCell>
        <mxCell id="myUPSxh2hrEcv8Bx-CGW-1" value="NutritionistSelectPage" style="rounded=0;whiteSpace=wrap;html=1;" parent="1" vertex="1">
          <mxGeometry x="125" y="40" width="120" height="40" as="geometry" />
        </mxCell>
        <mxCell id="myUPSxh2hrEcv8Bx-CGW-4" value="Nutritionist" style="rounded=0;whiteSpace=wrap;html=1;" parent="1" vertex="1">
          <mxGeometry x="260" y="40" width="120" height="40" as="geometry" />
        </mxCell>
        <mxCell id="myUPSxh2hrEcv8Bx-CGW-5" value="User" style="rounded=0;whiteSpace=wrap;html=1;" parent="1" vertex="1">
          <mxGeometry x="410" y="40" width="100" height="40" as="geometry" />
        </mxCell>
        <mxCell id="myUPSxh2hrEcv8Bx-CGW-6" value="ReviewPage" style="rounded=0;whiteSpace=wrap;html=1;" parent="1" vertex="1">
          <mxGeometry x="630" y="40" width="100" height="40" as="geometry" />
        </mxCell>
        <mxCell id="myUPSxh2hrEcv8Bx-CGW-7" value="User" style="text;html=1;align=center;verticalAlign=middle;resizable=0;points=[];autosize=1;strokeColor=none;fillColor=none;" parent="1" vertex="1">
          <mxGeometry x="15" y="8" width="50" height="30" as="geometry" />
        </mxCell>
        <mxCell id="-zA8KwV9yIr_Tob36a1G-4" value="Review" style="shape=umlLifeline;perimeter=lifelinePerimeter;whiteSpace=wrap;html=1;container=1;dropTarget=0;collapsible=0;recursiveResize=0;outlineConnect=0;portConstraint=eastwest;newEdgeStyle={&quot;edgeStyle&quot;:&quot;elbowEdgeStyle&quot;,&quot;elbow&quot;:&quot;vertical&quot;,&quot;curved&quot;:0,&quot;rounded&quot;:0};" parent="1" vertex="1">
          <mxGeometry x="520" y="40" width="100" height="730" as="geometry" />
        </mxCell>
        <mxCell id="-zA8KwV9yIr_Tob36a1G-5" value="showNutrSelectPage()" style="endArrow=classic;html=1;rounded=0;entryX=0.92;entryY=0.284;entryDx=0;entryDy=0;entryPerimeter=0;exitX=0.04;exitY=0.232;exitDx=0;exitDy=0;exitPerimeter=0;" parent="1" edge="1">
          <mxGeometry x="0.3173" y="60" width="50" height="50" relative="1" as="geometry">
            <mxPoint x="190.4000000000001" y="403.32000000000005" as="sourcePoint" />
            <mxPoint x="199.20000000000005" y="413.84000000000003" as="targetPoint" />
            <Array as="points">
              <mxPoint x="220" y="403" />
              <mxPoint x="220" y="414" />
            </Array>
            <mxPoint as="offset" />
          </mxGeometry>
        </mxCell>
        <mxCell id="-zA8KwV9yIr_Tob36a1G-6" value="checkReview()" style="endArrow=classic;html=1;rounded=0;exitX=0.08;exitY=0.462;exitDx=0;exitDy=0;exitPerimeter=0;" parent="1" source="PsXzmbZN0hnTAKAXfbtE-25" target="-zA8KwV9yIr_Tob36a1G-4" edge="1">
          <mxGeometry x="0.003" y="-16" width="50" height="50" relative="1" as="geometry">
            <mxPoint x="510" y="500" as="sourcePoint" />
            <mxPoint x="560" y="450" as="targetPoint" />
            <mxPoint as="offset" />
          </mxGeometry>
        </mxCell>
        <mxCell id="-zA8KwV9yIr_Tob36a1G-8" value="showError()" style="endArrow=classic;html=1;rounded=0;" parent="1" edge="1" target="-zA8KwV9yIr_Tob36a1G-4" source="-zA8KwV9yIr_Tob36a1G-4">
          <mxGeometry x="-0.0149" y="8" width="50" height="50" relative="1" as="geometry">
            <mxPoint x="570.5" y="634" as="sourcePoint" />
            <mxPoint x="671" y="634" as="targetPoint" />
            <mxPoint as="offset" />
            <Array as="points">
              <mxPoint x="620" y="610" />
              <mxPoint x="620" y="634" />
            </Array>
          </mxGeometry>
        </mxCell>
        <mxCell id="cqz7TTHAsHugfSmAmws--1" value="getNutrData()" style="endArrow=classic;html=1;rounded=0;" edge="1" parent="1">
          <mxGeometry width="50" height="50" relative="1" as="geometry">
            <mxPoint x="455" y="384" as="sourcePoint" />
            <mxPoint x="325" y="384" as="targetPoint" />
          </mxGeometry>
        </mxCell>
        <mxCell id="cqz7TTHAsHugfSmAmws--2" value="NutritionistData" style="endArrow=classic;html=1;rounded=0;dashed=1;dashPattern=8 8;" edge="1" parent="1">
          <mxGeometry x="0.0222" y="-10" width="50" height="50" relative="1" as="geometry">
            <mxPoint x="322" y="393" as="sourcePoint" />
            <mxPoint x="187" y="393" as="targetPoint" />
            <Array as="points">
              <mxPoint x="292" y="393" />
            </Array>
            <mxPoint as="offset" />
          </mxGeometry>
        </mxCell>
        <mxCell id="cqz7TTHAsHugfSmAmws--3" value="showSuccessMessage()" style="endArrow=classic;html=1;rounded=0;" edge="1" parent="1">
          <mxGeometry x="0.4" y="11" width="50" height="50" relative="1" as="geometry">
            <mxPoint x="570" y="521" as="sourcePoint" />
            <mxPoint x="670" y="521" as="targetPoint" />
            <mxPoint as="offset" />
          </mxGeometry>
        </mxCell>
        <mxCell id="cqz7TTHAsHugfSmAmws--5" value="" style="html=1;points=[];perimeter=orthogonalPerimeter;fontSize=12;" vertex="1" parent="1">
          <mxGeometry x="560" y="470" width="10" height="200" as="geometry" />
        </mxCell>
        <mxCell id="cqz7TTHAsHugfSmAmws--6" value="showReviewPage()" style="endArrow=classic;html=1;rounded=0;exitX=1.16;exitY=0.976;exitDx=0;exitDy=0;exitPerimeter=0;" edge="1" parent="1" source="cqz7TTHAsHugfSmAmws--5">
          <mxGeometry x="-0.0119" y="-15" width="50" height="50" relative="1" as="geometry">
            <mxPoint x="510" y="510" as="sourcePoint" />
            <mxPoint x="670" y="665" as="targetPoint" />
            <mxPoint as="offset" />
          </mxGeometry>
        </mxCell>
      </root>
    </mxGraphModel>
  </diagram>
</mxfile>
